<svg width="80" height="64" viewBox="0 0 80 64" fill="none" xmlns="http://www.w3.org/2000/svg">
<path d="M39.5062 63.2099C32.1671 63.2063 25.0583 60.6526 19.3931 55.9859L20.2877 54.903L20.2881 54.9025C25.0566 58.8342 30.916 61.209 37.076 61.7067C43.236 62.205 49.4008 60.802 54.7386 57.6874L55.4481 58.8994C50.6099 61.7253 45.1077 63.2129 39.5045 63.2099L39.5062 63.2099Z" fill="#208382"/>
<path d="M63.8872 51.7181L62.8035 50.8235V50.823C66.7184 46.0753 69.0905 40.2445 69.6024 34.1119C70.1138 27.9792 68.7408 21.8368 65.6668 16.5057L66.8824 15.8033C70.0998 21.3827 71.5372 27.811 71.0019 34.2302C70.4666 40.6485 67.9843 46.7502 63.8873 51.7201L63.8872 51.7181Z" fill="#208382"/>
<path d="M19.5319 8.95453L18.6011 7.90118C24.1218 3.03301 31.1686 0.244209 38.5257 0.0154122C45.8829 -0.213419 53.0888 2.13227 58.9019 6.64816L58.0395 7.75662C52.4857 3.44142 45.5995 1.19928 38.5708 1.41848C31.5409 1.63717 24.808 4.30254 19.5334 8.95468L19.5319 8.95453Z" fill="#208382"/>
<path d="M15.8026 52.5105C10.9684 47.0286 8.18355 40.0412 7.92168 32.7371C7.65978 25.4328 9.93706 18.2643 14.3666 12.4501L15.4834 13.3015L15.483 13.301C11.252 18.8566 9.07646 25.706 9.32647 32.685C9.57692 39.6639 12.2379 46.3406 16.856 51.578L15.8026 52.5105Z" fill="#208382"/>
<path d="M13.2923 62.5551C13.1063 62.5551 12.9272 62.481 12.7959 62.3492L9.81653 59.3691C9.54228 59.0948 9.54228 58.6504 9.81653 58.3761L33.6534 34.5381H33.653C33.8254 34.3661 34.0741 34.2956 34.3108 34.3511C34.5472 34.4071 34.7385 34.5813 34.8157 34.8119L35.2601 36.1461L36.0194 36.9045L37.3536 37.3489V37.3494C37.5846 37.4265 37.7592 37.6179 37.8148 37.8546C37.8708 38.0914 37.7998 38.3405 37.6278 38.5125L13.7887 62.3494C13.6573 62.4812 13.4783 62.5553 13.2922 62.5553L13.2923 62.5551ZM11.306 58.8726L13.2923 60.8594L35.83 38.3217L35.4187 38.181L35.4182 38.1815C35.315 38.1471 35.2211 38.0893 35.144 38.0121L34.1501 37.0192C34.0734 36.942 34.0152 36.8477 33.9808 36.7445L33.8402 36.3323L11.306 58.8726Z" fill="#208382"/>
<path d="M37.7828 38.2769L36.4777 37.7548L37.8556 34.3135L34.4106 35.6914L33.8877 34.3818L38.8537 32.3954V32.3959C39.1148 32.2914 39.4128 32.3522 39.6112 32.5511C39.8101 32.7499 39.8714 33.048 39.7669 33.3086L37.7828 38.2769Z" fill="#208382"/>
<path d="M12.7957 56.3899L13.789 55.3965L16.7687 58.3762L15.7753 59.3696L12.7957 56.3899Z" fill="#208382"/>
<path d="M14.2856 54.8988L15.279 53.9055L18.2587 56.8851L17.2653 57.8785L14.2856 54.8988Z" fill="#208382"/>
<path d="M47.2326 41.4374H34.5906V40.0331H46.5305V9.13028H15.6276V40.0331H28.2696V41.4379L14.9255 41.4374C14.5375 41.4374 14.2231 41.123 14.2231 40.7355V8.42846C14.2231 8.04045 14.5375 7.72607 14.9255 7.72607H47.2326C47.4186 7.72607 47.5972 7.80015 47.729 7.93154C47.8609 8.06338 47.9349 8.24195 47.9349 8.42845V40.7355C47.9349 40.9215 47.8608 41.1001 47.729 41.2319C47.5972 41.3638 47.4186 41.4374 47.2326 41.4374V41.4374Z" fill="#208382"/>
<path d="M47.2327 49.1624C44.6206 49.1713 42.0589 48.4486 39.8368 47.0761C37.6149 45.7031 35.8218 43.7356 34.6609 41.3962L35.918 40.7639C37.2655 43.4619 39.533 45.5898 42.3113 46.7627C45.0896 47.9355 48.1954 48.0766 51.0688 47.1604C53.9418 46.2446 56.3929 44.3315 57.9794 41.7666C59.5658 39.2022 60.1835 36.1551 59.7206 33.1749C59.2572 30.1953 57.7444 27.4787 55.4542 25.5166C53.1646 23.5541 50.2483 22.4752 47.2329 22.4739V21.0696C52.251 21.0696 56.8885 23.7469 59.3974 28.093C61.9066 32.4387 61.9066 37.7936 59.3974 42.1391C56.8885 46.4852 52.2511 49.1625 47.2329 49.1625L47.2327 49.1624Z" fill="#208382"/>
<path d="M69.7058 16.8556H52.8502C52.5971 16.8556 52.3635 16.7193 52.2391 16.4993C52.1143 16.2789 52.1179 16.0086 52.2484 15.7917L60.6765 1.74439H60.6761C60.8123 1.54598 61.0376 1.42737 61.2784 1.42737C61.5187 1.42737 61.744 1.54598 61.8802 1.74439L70.3083 15.7917H70.3079C70.4384 16.0086 70.4419 16.2789 70.3172 16.4993C70.1928 16.7193 69.9591 16.8556 69.706 16.8556H69.7058ZM54.0907 15.4513H68.4642L61.2772 3.4719L54.0907 15.4513Z" fill="#208382"/>
<path d="M69.7059 58.9962H31.78C31.392 58.9962 31.0776 58.6818 31.0776 58.2938V51.2704C31.0776 50.8824 31.392 50.568 31.78 50.568H69.7059C69.8924 50.568 70.071 50.6421 70.2029 50.7739C70.3342 50.9053 70.4083 51.0839 70.4083 51.2704V58.2938C70.4083 58.4798 70.3342 58.6584 70.2029 58.7902C70.071 58.9221 69.8924 58.9962 69.7059 58.9962V58.9962ZM32.4821 57.5914H69.0027V51.9729H32.4821V57.5914Z" fill="#208382"/>
<path d="M50.0408 51.27H51.4455V55.4838H50.0408V51.27Z" fill="#208382"/>
<path d="M57.064 51.27H58.4687V55.4838H57.064V51.27Z" fill="#208382"/>
<path d="M64.0881 51.27H65.4929V55.4838H64.0881V51.27Z" fill="#208382"/>
<path d="M43.0178 51.27H44.4225V55.4838H43.0178V51.27Z" fill="#208382"/>
<path d="M35.9949 51.27H37.3996V55.4838H35.9949V51.27Z" fill="#208382"/>
<path d="M39.5063 51.27H40.9111V54.0795H39.5063V51.27Z" fill="#208382"/>
<path d="M46.5293 51.27H47.934V54.0795H46.5293V51.27Z" fill="#208382"/>
<path d="M53.5535 51.27H54.9582V54.0795H53.5535V51.27Z" fill="#208382"/>
<path d="M60.5767 51.27H61.9814V54.0795H60.5767V51.27Z" fill="#208382"/>
<path d="M44.422 38.6279H40.2081V37.2232H43.7196V11.9393H18.4356V37.2232H28.2685V38.6279H17.7332C17.3456 38.6279 17.0312 38.3136 17.0312 37.9256V11.2363C17.0312 10.8483 17.3456 10.5339 17.7332 10.5339H44.4224C44.6089 10.5339 44.7875 10.608 44.9194 10.7398C45.0508 10.8717 45.1248 11.0502 45.1248 11.2363V37.9256C45.1248 38.1116 45.0507 38.2906 44.9194 38.422C44.7875 38.5539 44.6089 38.6279 44.4224 38.6279L44.422 38.6279Z" fill="#208382"/>
<path d="M27.5663 28.7955C25.5174 28.7955 23.5522 27.9815 22.1034 26.5327C20.6545 25.0838 19.8406 23.1191 19.8406 21.0701C19.8406 19.0212 20.6545 17.056 22.1034 15.6072C23.5522 14.1583 25.5174 13.3444 27.5663 13.3444C29.6152 13.3444 31.5803 14.1583 33.0292 15.6072C34.4781 17.056 35.292 19.0212 35.292 21.0701C35.2894 23.1182 34.4745 25.082 33.0266 26.5299C31.5782 27.9784 29.6144 28.7932 27.5663 28.7953V28.7955ZM27.5663 14.7482V14.7486C25.8899 14.7486 24.2819 15.4144 23.0967 16.6C21.911 17.7852 21.2453 19.3932 21.2453 21.0696C21.2453 22.746 21.9111 24.3536 23.0967 25.5392C24.2819 26.7244 25.8899 27.3906 27.5663 27.3906C29.2427 27.3906 30.8503 26.7244 32.0359 25.5392C33.2211 24.3536 33.8873 22.746 33.8873 21.0696C33.8855 19.3936 33.2188 17.787 32.0336 16.6018C30.8489 15.4171 29.2423 14.7504 27.5663 14.7486V14.7482Z" fill="#208382"/>
<path d="M33.8874 33.7122H29.6736C29.2856 33.7122 28.9712 33.3979 28.9712 33.0099V23.177C28.9712 22.7894 29.2856 22.4746 29.6736 22.4746H39.506C39.6921 22.4746 39.8711 22.5487 40.0025 22.6805C40.1343 22.8124 40.2084 22.9909 40.2084 23.177V30.9027H38.8036V23.8793H30.3755V32.3074H33.8869L33.8874 33.7122Z" fill="#208382"/>
</svg>
