<svg xmlns="http://www.w3.org/2000/svg" width="143" height="132" viewBox="0 0 143 132">
    <defs>
        <linearGradient id="nre0dl1naa" x1="94.186%" x2="25.646%" y1="9.347%" y2="100%">
            <stop offset="0%" stop-color="#09C5B1"/>
            <stop offset="100%" stop-color="#0BBEB1"/>
        </linearGradient>
        <linearGradient id="sjvjhj4xob" x1="91.805%" x2="1.468%" y1="10.727%" y2="98.572%">
            <stop offset="0%" stop-color="#17C7AE"/>
            <stop offset="100%" stop-color="#12A6B4"/>
        </linearGradient>
    </defs>
    <g fill="none" fill-rule="evenodd">
        <g>
            <g>
                <g transform="translate(-384 -1044) translate(384 1044)">
                    <rect width="116" height="116" x="27" fill="#156972" opacity=".9" rx="3"/>
                    <rect width="116" height="116" x="13" y="6" fill="url(#nre0dl1naa)" fill-opacity=".7" opacity=".778" rx="3"/>
                    <rect width="116" height="116" y="16" fill="url(#sjvjhj4xob)" rx="3"/>
                </g>
                <g fill-rule="nonzero">
                    <g>
                        <path fill="#156972" d="M20.767 54.883c-.82 0-1.484.664-1.484 1.484v7.416c0 .82.664 1.484 1.484 1.484.819 0 1.483-.664 1.483-1.484v-7.416c0-.82-.664-1.484-1.483-1.484z" transform="translate(-384 -1044) translate(384 1044) translate(14 28)"/>
                        <path fill="#E3F1FA" d="M87.517 16.317h-4.45V1.483C83.067.664 82.403 0 81.583 0h-8.9C71.864 0 71.2.664 71.2 1.483v14.834H1.483C.664 16.317 0 16.98 0 17.8v53.4c0 .82.664 1.483 1.483 1.483H8.9v4.45C8.9 83.687 14.213 89 20.767 89c6.553 0 11.866-5.313 11.866-11.867v-4.45h54.884c.819 0 1.483-.664 1.483-1.483V17.8c0-.82-.664-1.483-1.483-1.483zM80.1 38.567h-5.933V8.9H80.1v29.667zm-.767 2.966l-2.2 5.134-2.2-5.134h4.4zM74.167 2.967H80.1v2.966h-5.933V2.967zM8.286 19.283l-5.32 5.32v-5.32h5.32zm2.097 2.098V26.7H5.064l5.32-5.32zm19.284 55.752c0 4.916-3.985 8.9-8.9 8.9-4.916 0-8.9-3.984-8.9-8.9v-17.8c0-4.915 3.984-8.9 8.9-8.9 4.915 0 8.9 3.985 8.9 8.9v17.8zm56.366-7.416h-53.4V59.333c0-6.553-5.313-11.866-11.866-11.866-6.554 0-11.867 5.313-11.867 11.866v10.384H2.967v-40.05h8.9c.819 0 1.483-.664 1.483-1.484v-8.9H71.2V40.05c0 .02.012.039.012.06.005.172.039.34.1.5v.021l4.45 10.384c.235.545.77.898 1.364.898.593 0 1.13-.353 1.363-.898l4.45-10.384v-.022c.062-.159.096-.327.101-.498 0-.022.012-.04.012-.061V19.283h2.966l.015 50.434z" transform="translate(-384 -1044) translate(384 1044) translate(14 28)"/>
                        <path fill="#156972" d="M81.583 63.783h-2.966c-.82 0-1.484.664-1.484 1.484 0 .819.664 1.483 1.484 1.483h2.966c.82 0 1.484-.664 1.484-1.483 0-.82-.664-1.484-1.484-1.484zM72.683 63.783h-2.966c-.82 0-1.484.664-1.484 1.484 0 .819.664 1.483 1.484 1.483h2.966c.82 0 1.484-.664 1.484-1.483 0-.82-.664-1.484-1.484-1.484zM60.481 27.244c-.518-.634-1.453-.727-2.087-.209L43.063 39.58 29.176 27.08c-.511-.46-1.271-.508-1.837-.117L8.056 40.314c-.45.296-.704.812-.664 1.349.04.537.367 1.01.856 1.236.488.226 1.06.17 1.496-.146l18.32-12.683 13.96 12.565c.544.489 1.362.508 1.929.046l16.316-13.35c.305-.248.499-.608.539-1 .04-.39-.078-.782-.327-1.087zM56.141 46.68c-.288-.41-.759-.654-1.26-.654-.502 0-.973.244-1.261.654l-7.417 11.867c-.286.458-.301 1.036-.038 1.508s.761.764 1.302.762H62.3c.54 0 1.036-.293 1.297-.765.262-.471.247-1.048-.04-1.505l-7.416-11.866zm-6.004 11.17l4.746-7.584 4.747 7.584h-9.493z" transform="translate(-384 -1044) translate(384 1044) translate(14 28)"/>
                    </g>
                </g>
            </g>
        </g>
    </g>
</svg>
