<svg width="58" height="69" viewBox="0 0 58 69" fill="none" xmlns="http://www.w3.org/2000/svg">
<path d="M48.3231 65.1149H12.1103C11.8871 65.1149 11.6811 64.9961 11.5698 64.8024C11.4585 64.6094 11.4585 64.3711 11.5705 64.1781L13.1687 61.4212C13.5622 60.7309 13.3239 59.8394 12.6357 59.4377L6.54782 55.9233C6.32804 55.7956 6.0794 55.7283 5.82666 55.7283C5.30606 55.7283 4.82186 56.0064 4.56223 56.4542L3.59246 58.1383C3.45166 58.3828 3.1632 58.5023 2.89122 58.4295C2.61855 58.3567 2.42831 58.1101 2.42762 57.8278L2.34314 13.9122C2.34246 13.746 2.40839 13.5873 2.52584 13.4699L10.817 5.17452C10.9338 5.05708 11.0931 4.99182 11.2586 4.99182H48.3259C48.6707 4.99182 48.9502 5.27135 48.9502 5.61614V64.4926C48.9488 64.8367 48.6693 65.1156 48.3245 65.1156L48.3231 65.1149ZM13.1934 63.8669H47.6989V6.2388H11.516L3.59093 14.1681L3.6706 55.5448C4.17883 54.88 4.97692 54.4789 5.82655 54.4789C6.29908 54.4789 6.76473 54.6046 7.1734 54.8415L13.2613 58.3566C14.5408 59.1039 14.9832 60.7563 14.2503 62.0414L13.1934 63.8669Z" fill="#208382"/>
<path d="M53.1494 61.8094H48.3225C47.9777 61.8094 47.6982 61.5298 47.6982 61.1851V6.23999H12.783C12.5303 6.23999 12.3029 6.08752 12.2061 5.85469C12.1099 5.62118 12.1635 5.35263 12.3421 5.17475L15.6416 1.88209C15.7584 1.76533 15.917 1.70007 16.0825 1.70007H53.1498C53.4946 1.70007 53.7741 1.9796 53.7741 2.32439V61.1851C53.7741 61.5291 53.4946 61.8087 53.1505 61.8087L53.1494 61.8094ZM48.9468 60.5614H52.5252V2.94735H16.3406L14.2919 4.99201H48.3227C48.6674 4.99201 48.947 5.27154 48.947 5.61633L48.9468 60.5614Z" fill="#208382"/>
<path d="M25.8773 45.3135C23.0593 45.3135 20.2729 44.5656 17.8189 43.15C10.1162 38.6849 7.46373 28.7832 11.9054 21.077C14.788 16.0949 20.1561 13 25.9158 13C28.733 13 31.5188 13.7479 33.9727 15.1635C41.6802 19.6175 44.3327 29.5187 39.8862 37.2365C37.0071 42.2186 31.6397 45.3135 25.8773 45.3135ZM25.9157 14.2489C20.6006 14.2489 15.6458 17.1046 12.9865 21.7015C8.88822 28.8115 11.3361 37.9487 18.4439 42.069C20.7076 43.3746 23.2784 44.065 25.8772 44.065C31.1952 44.065 36.1485 41.2092 38.8058 36.6123C42.9088 29.4914 40.4617 20.354 33.3498 16.2448C31.0853 14.9399 28.5146 14.2489 25.9157 14.2489Z" fill="#208382"/>
<path d="M17.8949 50.1434C17.7864 50.1434 17.6785 50.1152 17.5824 50.0596L11.9546 46.8076C11.6565 46.6352 11.5542 46.254 11.7266 45.9552L14.9457 40.3768C15.0398 40.2141 15.2019 40.1021 15.3874 40.0726C15.5735 40.0431 15.7617 40.0987 15.9025 40.2237C16.6799 40.9187 17.535 41.5403 18.4451 42.0705C19.3846 42.6021 20.3496 43.028 21.3076 43.3329C21.4876 43.3899 21.6318 43.5259 21.7005 43.7017C21.7685 43.8782 21.7534 44.0754 21.6593 44.2388L18.4354 49.8309C18.353 49.9745 18.2163 50.0789 18.0563 50.1221C18.0034 50.1365 17.9491 50.1434 17.8949 50.1434H17.8949ZM13.1195 46.039L17.6661 48.6659L20.2011 44.2689C19.4031 43.9695 18.6064 43.5952 17.8235 43.1522C17.0577 42.7057 16.331 42.203 15.6524 41.6501L13.1195 46.039Z" fill="#208382"/>
<path d="M8.76962 68.5258C8.76893 68.5258 8.76893 68.5258 8.76962 68.5258C8.3026 68.5258 7.84106 68.4042 7.43515 68.1741L1.34583 64.6549C0.0614864 63.9083 -0.381503 62.2552 0.358189 60.9687L8.65902 46.5821C9.14185 45.7496 10.0395 45.2332 11.0038 45.2332C11.4763 45.2332 11.942 45.3588 12.3507 45.5958L18.4386 49.1109C19.7181 49.8581 20.1604 51.5105 19.4276 52.7956L11.1164 67.1837C10.6335 68.0119 9.73519 68.5257 8.76948 68.5257L8.76962 68.5258ZM11.0031 46.481C10.4825 46.481 9.99831 46.7591 9.73869 47.2069L1.43856 61.5914C1.0409 62.2831 1.27922 63.1739 1.97014 63.5749L8.05401 67.0907C8.2676 67.2116 8.51624 67.2775 8.7683 67.2775C9.29166 67.2775 9.77654 67.0014 10.0348 66.5584L18.3439 52.1744C18.7374 51.4835 18.4998 50.592 17.8109 50.1903L11.7244 46.6759C11.5046 46.5481 11.256 46.4808 11.0033 46.4808L11.0031 46.481Z" fill="#208382"/>
<path d="M26.2484 39.8489C20.7271 39.8489 16.2354 35.3538 16.2354 29.8284C16.2354 29.4836 16.5149 29.2041 16.8597 29.2041H25.6249V20.4485C25.6249 20.1038 25.9044 19.8242 26.2492 19.8242C31.7678 19.8242 36.2581 24.3118 36.2581 29.8283C36.2568 35.3537 31.7671 39.8488 26.2485 39.8488L26.2484 39.8489ZM17.5046 30.452C17.8254 34.9987 21.6242 38.6004 26.2478 38.6004C31.0783 38.6004 35.0081 34.6649 35.0081 29.8284C35.0081 25.2102 31.412 21.4155 26.8715 21.0941V29.8284C26.8715 30.1731 26.592 30.4527 26.2472 30.4527L17.5046 30.452Z" fill="#208382"/>
<path d="M16.1701 27.9457C16.0135 27.9457 15.8617 27.8866 15.7463 27.7794C15.6227 27.6648 15.5506 27.5061 15.5464 27.3378L16.1701 27.322L15.5458 27.3296C15.5409 27.1448 15.5361 26.9539 15.5416 26.7568C15.6261 22.1943 19.4069 18.4786 23.9689 18.4786C24.0218 18.4786 24.0753 18.4793 24.1282 18.48C24.4723 18.4862 24.7464 18.7705 24.7409 19.1146L24.6042 26.9272C24.5987 27.2548 24.3398 27.5227 24.0122 27.5398L16.2017 27.9451C16.1914 27.9457 16.1811 27.9457 16.1701 27.9457L16.1701 27.9457ZM23.4812 19.7431C19.8555 19.9917 16.9214 22.9911 16.7923 26.6641L23.3666 26.3227L23.4812 19.7431Z" fill="#208382"/>
<path d="M44.1683 49.2488H35.2782C34.9335 49.2488 34.6539 48.9692 34.6539 48.6244C34.6539 48.2797 34.9335 48.0001 35.2782 48.0001H44.1683C44.513 48.0001 44.7926 48.2796 44.7926 48.6244C44.7919 48.9692 44.5124 49.2488 44.1683 49.2488Z" fill="#208382"/>
<path d="M44.1683 54.2403H33.6243C33.2795 54.2403 33 53.9607 33 53.616C33 53.2712 33.2795 52.9916 33.6243 52.9916H44.1683C44.5131 52.9916 44.7926 53.2712 44.7926 53.616C44.7919 53.9607 44.5124 54.2403 44.1683 54.2403Z" fill="#208382"/>
<path d="M44.1683 59.2162H35.2782C34.9335 59.2162 34.6539 58.9367 34.6539 58.5919C34.6539 58.2471 34.9335 57.9676 35.2782 57.9676H44.1683C44.513 57.9676 44.7926 58.2471 44.7926 58.5919C44.7919 58.9374 44.5124 59.2162 44.1683 59.2162Z" fill="#208382"/>
<rect x="8.59827" y="49.0007" width="10.0355" height="16.1322" rx="2" transform="rotate(30.4755 8.59827 49.0007)" fill="#FAFDFF"/>
</svg>
