<svg xmlns="http://www.w3.org/2000/svg" width="139" height="132" viewBox="0 0 139 132">
    <defs>
        <linearGradient id="ddgyuia3la" x1="94.186%" x2="25.646%" y1="9.347%" y2="100%">
            <stop offset="0%" stop-color="#09C5B1"/>
            <stop offset="100%" stop-color="#0BBEB1"/>
        </linearGradient>
        <linearGradient id="qgbckvqm9b" x1="91.805%" x2="1.468%" y1="10.727%" y2="98.572%">
            <stop offset="0%" stop-color="#17C7AE"/>
            <stop offset="100%" stop-color="#12A8B4"/>
        </linearGradient>
    </defs>
    <g fill="none" fill-rule="evenodd">
        <g>
            <g>
                <g transform="translate(-657 -1044) translate(657 1044)">
                    <rect width="116" height="116" x="23" fill="#156972" opacity=".9" rx="3"/>
                    <rect width="116" height="116" x="11" y="6" fill="url(#ddgyuia3la)" fill-opacity=".7" opacity=".778" rx="3"/>
                    <rect width="116" height="116" y="16" fill="url(#qgbckvqm9b)" rx="3"/>
                </g>
                <g fill-rule="nonzero">
                    <g transform="translate(-657 -1044) translate(657 1044) translate(13 28) translate(.76)">
                        <path fill="#E3F1FA" d="M57.72 91.543H27.694c-.432 0-.84-.205-1.098-.552-.258-.347-.337-.796-.213-1.21l5.629-18.763c.174-.579.707-.975 1.312-.975h18.762c.604 0 1.137.396 1.311.975l5.599 18.662c.059.153.091.32.091.494 0 .756-.613 1.369-1.369 1.369zm-28.184-2.739h26.339l-4.807-16.023H34.343l-4.807 16.023z"/>
                        <circle cx="42.618" cy="64.081" r="2.051" fill="#156972"/>
                        <path fill="#E3F1FA" d="M67.096 91.543H18.315c-.756 0-1.37-.613-1.37-1.37 0-.756.614-1.369 1.37-1.369h48.781c.757 0 1.37.613 1.37 1.37 0 .756-.613 1.369-1.37 1.369zM15.081 59.647H1.43c-.756 0-1.37-.613-1.37-1.369s.614-1.37 1.37-1.37h13.652c.757 0 1.37.614 1.37 1.37 0 .756-.613 1.37-1.37 1.37zM85.858 59.647H22.906c-.757 0-1.37-.613-1.37-1.369s.613-1.37 1.37-1.37h62.952c.756 0 1.37.614 1.37 1.37 0 .756-.613 1.37-1.37 1.37z"/>
                        <path fill="#E3F1FA" d="M77.675 58.29c-.756 0-1.37-.613-1.37-1.37V17.214h-6.454c-.756 0-1.37-.613-1.37-1.369s.614-1.37 1.37-1.37h7.824c.756 0 1.37.614 1.37 1.37v41.077c0 .756-.614 1.37-1.37 1.37zM9.213 58.29c-.756 0-1.369-.613-1.369-1.37V15.845c0-.756.613-1.37 1.37-1.37h7.824c.756 0 1.369.614 1.369 1.37 0 .756-.613 1.37-1.37 1.37h-6.454V56.92c0 .756-.613 1.37-1.37 1.37z"/>
                        <path fill="#E3F1FA" d="M81.229 72.78H6.059c-3.308 0-6-2.69-6-5.998V12.25c0-3.308 2.692-5.999 6-5.999h10.978c.757 0 1.37.613 1.37 1.37 0 .756-.613 1.369-1.37 1.369H6.058c-1.797 0-3.26 1.462-3.26 3.26v54.532c0 1.798 1.463 3.26 3.26 3.26H81.23c1.798 0 3.26-1.462 3.26-3.26V12.25c0-1.798-1.462-3.26-3.26-3.26H69.851c-.756 0-1.37-.613-1.37-1.37 0-.756.614-1.369 1.37-1.369h11.378c3.308 0 5.999 2.691 5.999 5.999v54.532c0 3.308-2.691 5.999-5.999 5.999z"/>
                        <path fill="#156972" d="M42.466 49.097H46.378V53.009H42.466zM48.334 49.097H52.246V53.009H48.334zM36.598 49.097H40.51V53.009H36.598zM43.642 21.182c-.197 0-.393-.042-.576-.127l-19.763-9.18c-.484-.224-.793-.709-.793-1.242s.31-1.017.793-1.242L43.066.211c.365-.17.787-.17 1.153 0l19.763 9.18c.484.225.793.71.793 1.242 0 .533-.31 1.018-.793 1.242l-19.763 9.18c-.183.085-.38.127-.577.127zM27.13 10.633l16.512 7.67 16.513-7.67-16.513-7.67-16.512 7.67z"/>
                        <path fill="#156972" d="M43.642 28.982c-.197 0-.393-.043-.576-.127l-19.763-9.18c-.484-.224-.793-.709-.793-1.242 0-.532.309-1.017.792-1.242l8.39-3.903c.367-.17.79-.17 1.155 0l10.795 5.015 10.795-5.016c.366-.17.789-.17 1.155 0l8.39 3.904c.484.225.792.71.792 1.242 0 .533-.309 1.017-.792 1.242l-19.763 9.18c-.183.084-.38.127-.577.127zm-16.514-10.55l16.514 7.67 16.515-7.67-5.143-2.393-10.794 5.016c-.366.17-.789.17-1.154 0L32.27 16.039l-5.143 2.393z"/>
                        <path fill="#156972" d="M43.642 36.774c-.197 0-.393-.043-.576-.128l-19.763-9.18c-.484-.224-.793-.708-.793-1.241 0-.533.31-1.018.793-1.242l8.39-3.896c.367-.17.788-.17 1.154 0l10.795 5.016 10.795-5.016c.366-.17.788-.17 1.154 0l8.39 3.896c.484.224.793.709.793 1.242s-.309 1.017-.792 1.242l-19.763 9.18c-.183.084-.38.127-.577.127zM27.13 26.225l16.513 7.67 16.512-7.67-5.14-2.386-10.795 5.016c-.366.17-.788.17-1.154 0L32.27 23.839l-5.14 2.386z"/>
                        <path fill="#156972" d="M43.642 44.598c-.197 0-.393-.043-.576-.128l-19.763-9.18c-.484-.224-.793-.708-.793-1.241 0-.533.31-1.017.793-1.242l8.39-3.896c.367-.17.788-.17 1.154 0l10.795 5.016 10.795-5.016c.366-.17.788-.17 1.154 0l8.39 3.896c.484.224.793.709.793 1.242s-.309 1.017-.792 1.242l-19.763 9.18c-.183.084-.38.127-.577.127zM27.13 34.049l16.513 7.67 16.512-7.67-5.14-2.386-10.795 5.016c-.366.17-.788.17-1.154 0L32.27 31.663l-5.14 2.386z"/>
                    </g>
                </g>
            </g>
        </g>
    </g>
</svg>
